<?xml version="1.0"?>
<svg xmlns="http://www.w3.org/2000/svg" viewBox="0 0 50 50">
    <path d="m 4.7733591,41.36263 c -0.1181367,0.118136 -0.3548716,0.35441 -0.4730084,0.590683 -0.5906836,0.708821 -0.7088204,1.652991 -0.5906836,2.598085 0.2362734,0.945093 0.7097434,1.772512 1.5367004,2.245059 1.0632306,0.708821 5.5515035,2.953419 19.7279115,2.953419 14.176408,0 18.664681,-2.244598 19.727912,-2.953419 0.826957,-0.472547 1.300426,-1.299966 1.5367,-2.245059 0.236273,-0.945094 -4.62e-4,-1.888804 -0.473009,-2.715761 -0.236273,-0.236273 -0.35441,-0.354871 -0.590684,-0.473007 -3.662238,2.362734 -8.741656,3.661776 -20.200919,3.661776 -11.222989,0 -16.5386807,-1.417178 -20.2009199,-3.661776 z m 10.7793999,-16.421468 1.062538,2.305051 2.658077,0.353026 -1.948564,1.77205 0.353027,2.481564 -2.125078,-1.062538 -2.30505,1.239051 0.356487,-2.481564 -1.740102,-2.022207 2.449614,-0.102868 z m 15.71112,-3.839444 c 1.240435,0 2.480871,0.35441 3.544102,0.886026 -3.544102,0.35441 -6.378693,3.366897 -6.378693,7.088204 0,3.721307 2.834591,6.733793 6.378693,7.088204 -1.063231,0.531615 -2.303667,0.886025 -3.544102,0.886025 -4.430128,0 -7.97423,-3.544102 -7.97423,-7.974229 0,-4.430128 3.721307,-7.97423 7.97423,-7.97423 z m -7.441549,-9.155596 1.062539,2.30505 2.658076,0.353026 -1.948564,1.772051 0.353027,2.481564 -2.125078,-1.062539 -2.305049,1.239051 0.356487,-2.481563 -1.990258,-1.980514 2.699769,-0.321076 z M 30.881116,0.25012384 c -14.648955,0 -22.3269203,29.88951616 -24.4533812,39.34045516 3.3078282,1.890187 8.2686492,3.071093 18.5465442,3.071093 10.277896,0 15.002903,-1.063231 18.428868,-2.953418 C 39.032088,26.122529 32.770842,11.000566 32.770842,10.882429 v -0.117675 l -0.23535,-0.473009 c -0.118137,-0.3544096 -0.118599,-1.0623061 0.117676,-1.4167163 0.118137,-0.1181368 0.235811,-0.3553341 0.708358,-0.3553341 2.244598,0 2.362735,3.6617774 2.362735,4.8431454 0,1.299504 1.063231,2.245058 2.362735,2.245058 0.945094,0 1.655298,-0.590683 2.009709,-1.181367 1.772051,-3.071555 2.00694,-6.8510064 0.353025,-9.6862884 C 39.268363,2.7319181 36.669817,0.25012384 30.881116,0.25012384 Z" />
</svg>
